<mxfile host="app.diagrams.net" modified="2023-10-25T08:59:05.305Z" agent="Mozilla/5.0 (Windows NT 10.0; Win64; x64) AppleWebKit/537.36 (KHTML, like Gecko) Chrome/118.0.0.0 Safari/537.36" etag="kwwWgx8QxF77h4WN2_Kh" version="22.0.7" type="device">
  <diagram name="Page-1" id="a5usXw2U1VGm5kHoUeiX">
    <mxGraphModel dx="1434" dy="772" grid="1" gridSize="10" guides="1" tooltips="1" connect="1" arrows="1" fold="1" page="1" pageScale="1" pageWidth="827" pageHeight="1169" math="0" shadow="0">
      <root>
        <mxCell id="0" />
        <mxCell id="1" parent="0" />
        <mxCell id="jmmaLXqF6fo88p4Yhmua-17" value="Client" style="swimlane;childLayout=stackLayout;horizontal=1;startSize=50;horizontalStack=0;rounded=1;fontSize=14;fontStyle=0;strokeWidth=2;resizeParent=0;resizeLast=1;shadow=0;dashed=0;align=center;arcSize=4;whiteSpace=wrap;html=1;" vertex="1" parent="1">
          <mxGeometry x="70" y="160" width="160" height="120" as="geometry" />
        </mxCell>
        <mxCell id="jmmaLXqF6fo88p4Yhmua-18" value="&lt;u&gt;numero_c&lt;/u&gt;&lt;br&gt;nom&lt;br&gt;prenom" style="align=left;strokeColor=none;fillColor=none;spacingLeft=4;fontSize=12;verticalAlign=top;resizable=0;rotatable=0;part=1;html=1;" vertex="1" parent="jmmaLXqF6fo88p4Yhmua-17">
          <mxGeometry y="50" width="160" height="70" as="geometry" />
        </mxCell>
        <mxCell id="jmmaLXqF6fo88p4Yhmua-19" value="Produit" style="swimlane;childLayout=stackLayout;horizontal=1;startSize=50;horizontalStack=0;rounded=1;fontSize=14;fontStyle=0;strokeWidth=2;resizeParent=0;resizeLast=1;shadow=0;dashed=0;align=center;arcSize=4;whiteSpace=wrap;html=1;" vertex="1" parent="1">
          <mxGeometry x="620" y="140" width="160" height="120" as="geometry" />
        </mxCell>
        <mxCell id="jmmaLXqF6fo88p4Yhmua-20" value="&lt;u&gt;numero_p&lt;/u&gt;&lt;br&gt;designation&lt;br&gt;prix" style="align=left;strokeColor=none;fillColor=none;spacingLeft=4;fontSize=12;verticalAlign=top;resizable=0;rotatable=0;part=1;html=1;" vertex="1" parent="jmmaLXqF6fo88p4Yhmua-19">
          <mxGeometry y="50" width="160" height="70" as="geometry" />
        </mxCell>
        <mxCell id="jmmaLXqF6fo88p4Yhmua-35" style="edgeStyle=orthogonalEdgeStyle;rounded=0;orthogonalLoop=1;jettySize=auto;html=1;entryX=0;entryY=0.25;entryDx=0;entryDy=0;endArrow=none;endFill=0;" edge="1" parent="1" source="jmmaLXqF6fo88p4Yhmua-32" target="jmmaLXqF6fo88p4Yhmua-19">
          <mxGeometry relative="1" as="geometry" />
        </mxCell>
        <mxCell id="jmmaLXqF6fo88p4Yhmua-37" value="0,n" style="edgeLabel;html=1;align=center;verticalAlign=middle;resizable=0;points=[];" vertex="1" connectable="0" parent="jmmaLXqF6fo88p4Yhmua-35">
          <mxGeometry x="0.0087" relative="1" as="geometry">
            <mxPoint as="offset" />
          </mxGeometry>
        </mxCell>
        <mxCell id="jmmaLXqF6fo88p4Yhmua-32" value="acheter" style="swimlane;childLayout=stackLayout;horizontal=1;startSize=50;horizontalStack=0;rounded=1;fontSize=14;fontStyle=0;strokeWidth=2;resizeParent=0;resizeLast=1;shadow=0;dashed=0;align=center;arcSize=4;whiteSpace=wrap;html=1;" vertex="1" parent="1">
          <mxGeometry x="360" y="150" width="160" height="90" as="geometry">
            <mxRectangle x="360" y="150" width="90" height="50" as="alternateBounds" />
          </mxGeometry>
        </mxCell>
        <mxCell id="jmmaLXqF6fo88p4Yhmua-34" style="edgeStyle=orthogonalEdgeStyle;rounded=0;orthogonalLoop=1;jettySize=auto;html=1;entryX=0.006;entryY=0.629;entryDx=0;entryDy=0;entryPerimeter=0;exitX=1;exitY=0.25;exitDx=0;exitDy=0;endArrow=none;endFill=0;" edge="1" parent="1" source="jmmaLXqF6fo88p4Yhmua-17" target="jmmaLXqF6fo88p4Yhmua-32">
          <mxGeometry relative="1" as="geometry" />
        </mxCell>
        <mxCell id="jmmaLXqF6fo88p4Yhmua-36" value="0,n" style="edgeLabel;html=1;align=center;verticalAlign=middle;resizable=0;points=[];" vertex="1" connectable="0" parent="jmmaLXqF6fo88p4Yhmua-34">
          <mxGeometry x="-0.0049" relative="1" as="geometry">
            <mxPoint as="offset" />
          </mxGeometry>
        </mxCell>
        <mxCell id="jmmaLXqF6fo88p4Yhmua-40" value="date_achat" style="text;html=1;align=center;verticalAlign=middle;resizable=0;points=[];autosize=1;strokeColor=none;fillColor=none;" vertex="1" parent="1">
          <mxGeometry x="357" y="198" width="80" height="30" as="geometry" />
        </mxCell>
      </root>
    </mxGraphModel>
  </diagram>
</mxfile>
